@startuml
!pragma useIntermediatePackages false
hide circle
skinparam classAttributeIconSize 0


hide methods 

class Query {
    +$select: SelectField[0..1]
    +$condition: Condition[1] 		\t\t\t\t\t\t\t\t\t\t\t\t
}
 
Query ..> SelectField
Query ..> Condition

' to better arrange the SelectField
SelectField -r[hidden]- Placeholder1
Placeholder1 -r[hidden]- Condition
hide Placeholder1

' to better arrange the elements
Placeholder2 -l[hidden]- Condition
hide Placeholder2
 
enum SelectField {
     id
}


  abstract class Condition <<abstract>>{
  		\t\t\t\t\t\t\t\t\t\t\t\t
  }

  enum LogicalOperation {
    $and
    $or
    $not
    ' nested
  }

  class LogicalExpression {
    +operation: LogicalOperation[1]
    +operands: Condition[1..*]
  }

  class MatchExpression {
    +$match: Condition[1..*]
  }

  enum Operation <<abstract>> {
  		\t\t\t\t\t\t\t\t\t\t\t\t
      }

  enum ComparisonOperation {
    $eq
    $ne
    $gt
    $ge
    $lt
    $le
  }
  Operation <|-- ComparisonOperation

  enum StringOperation {
    $contains
    $starts-with
    $ends-with
    $regex
  }
  Operation <|-- StringOperation

  class Comparison {
    +operation: Operation[1]
    +operands: Operand[2] 		\t\t\t\t\t\t\t\t\t\t
  }

  enum CastingOperation {
    $strCast
    $numCast
    $hexCast
    $boolCast
    $dateTimeCast
    $timeCast
  }

  enum Operand <<abstract>> {
		\t\t\t\t\t\t\t\t\t\t\t\t
  }

  enum FieldIdentifier {
    $field
  }

  enum Value {
    $strVal
    $numVal
    $hexVal
    $dateTimeVal
    $timeVal
    $dayOfWeek
    $dayOfMonth
    $month
    $year
  }

  LogicalExpression -u-|> Condition
  LogicalExpression ..>Condition
  LogicalExpression ..> LogicalOperation
  Comparison -u-|> Condition
  Condition <|-- MatchExpression
  MatchExpression ..> Condition 
  Comparison ..> Operation
  Comparison ..> Operand
  Operand <|-- CastingOperation
  Operand <|--Value
  Operand <|-- FieldIdentifier

'for better arrangements of the classes below Condition
LogicalExpression .r[hidden]. Comparison
'Comparison .r[hidden]. MatchExpression

'Operation .r[hidden]. Operand

@enduml